<svg version="1.1" viewBox="0.0 0.0 1024.0 1024.0" fill="none" stroke="none" stroke-linecap="square" stroke-miterlimit="10" xmlns:xlink="http://www.w3.org/1999/xlink" xmlns="http://www.w3.org/2000/svg"><clipPath id="p.0"><path d="m0 0l1024.0 0l0 1024.0l-1024.0 0l0 -1024.0z" clip-rule="nonzero"/></clipPath><g clip-path="url(#p.0)"><path fill="#000000" fill-opacity="0.0" d="m0 0l1024.0 0l0 1024.0l-1024.0 0z" fill-rule="evenodd"/><path fill="#000000" d="m0.031499475 0.0052509187l1024.0 0l0 1024.0l-1024.0 0z" fill-rule="evenodd"/><path fill="#000000" fill-opacity="0.0" d="m294.04724 376.25198l435.81104 0l0 266.61417l-435.81104 0z" fill-rule="evenodd"/><path fill="#f3f3f3" d="m465.8903 572.3414l39.109375 0l0 13.171875l-104.53125 0l0 -13.171875l50.765625 0l0 -96.25003l-43.25 0l0 -12.78125l43.25 0l0 -37.609375l14.65625 0l0 37.609375l36.09375 0l0 12.78125l-36.09375 0l0 96.25003zm-91.171875 -118.81253l26.875 0l0 13.15625q-8.453125 20.3125 -19.546875 35.53125q17.671875 16.171906 31.765625 31.59378l-9.578125 9.203125q-12.59375 -13.71875 -29.890625 -29.890625l0 78.96875l-14.296875 0l0 -67.3125q-12.40625 11.28125 -27.828125 20.125l-3.9375 -15.046875q40.046875 -23.50003 57.53125 -63.171906l-52.453125 0l0 -13.15625l26.875 0l0 -29.515625l14.484375 0l0 29.515625zm176.34372 129.34378l0 8.28125l-14.296875 0l0 -73.328125l138.375 0l0 73.328125l-14.296875 0l0 -8.28125l-109.78125 0zm47.75 -27.625l-47.75 0l0 15.78125l47.75 0l0 -15.78125zm14.28125 0l0 15.78125l47.75 0l0 -15.78125l-47.75 0zm0 -10.53125l47.75 0l0 -15.609375l-47.75 0l0 15.609375zm-22.75 -59.40628q31.21875 -18.046875 57.15625 -37.421875l-35.34375 0q-18.609375 14.109375 -37.03125 25.390625q10.53125 8.265625 15.21875 12.03125zm8.46875 43.796906l-47.75 0l0 15.609375l47.75 0l0 -15.609375zm50.375 -48.68753l11.84375 -7.140625q17.109375 17.484375 32.90625 36.46875l-11.46875 7.3281555q-3.0 -3.765625 -9.40625 -10.7187805l-149.45312 4.140625l-0.375 -12.21875l46.0625 -1.125q1.5 -0.765625 4.125 -2.265625q2.640625 -1.5 3.390625 -1.875q-24.4375 -19.546875 -37.78125 -29.328125l10.703125 -9.96875q6.015625 4.515625 14.484375 11.09375q16.359375 -9.96875 25.9375 -16.921875l-67.296875 0l0 -11.84375l75.578125 0l0 -15.78125l15.03125 0l0 15.78125l75.578125 0l0 11.84375l-39.859375 0l8.65625 8.84375q-29.890625 21.796875 -61.859375 39.65625l66.5625 -1.6875q-9.03125 -9.765625 -13.359375 -14.28125z" fill-rule="nonzero"/></g></svg>